<svg width="46" height="45" viewBox="0 0 46 45" fill="none" xmlns="http://www.w3.org/2000/svg">
<circle cx="22.6279" cy="22.5" r="22.5" fill="#ECF5FF"/>
<path d="M17.0673 10.8454L18.3238 10.4441C19.4998 10.0684 20.7575 10.6763 21.2615 11.8639L22.2648 14.2299C22.7023 15.2601 22.4596 16.4723 21.6651 17.2259L19.4566 19.3236C19.5927 20.5789 20.0143 21.8144 20.7213 23.0301C21.3936 24.2059 22.2945 25.2353 23.3708 26.0576L26.0261 25.1709C27.0318 24.8361 28.1273 25.2223 28.7445 26.1288L30.1818 28.2404C30.9005 29.2951 30.771 30.7488 29.8808 31.6424L28.9265 32.6003C27.9768 33.5534 26.6211 33.8999 25.3658 33.5079C22.404 32.5839 19.6806 29.8411 17.1956 25.2794C14.7075 20.71 13.8294 16.8336 14.5613 13.6501C14.8693 12.3108 15.8236 11.2433 17.0696 10.8454" fill="#348AC9"/>
</svg>
