<svg width="46" height="45" viewBox="0 0 46 45" fill="none" xmlns="http://www.w3.org/2000/svg">
<circle cx="22.6279" cy="22.5" r="22.5" fill="#ECF5FF"/>
<path d="M22.1281 18.0946C19.9777 18.0946 18.2228 19.8495 18.2228 21.9999C18.2228 24.1503 19.9777 25.9052 22.1281 25.9052C24.2785 25.9052 26.0333 24.1503 26.0333 21.9999C26.0333 19.8495 24.2785 18.0946 22.1281 18.0946ZM33.841 21.9999C33.841 20.3827 33.8556 18.7802 33.7648 17.1659C33.674 15.2909 33.2462 13.6268 31.8751 12.2558C30.5011 10.8817 28.84 10.4569 26.965 10.3661C25.3478 10.2753 23.7453 10.2899 22.131 10.2899C20.5138 10.2899 18.9113 10.2753 17.297 10.3661C15.422 10.4569 13.758 10.8847 12.3869 12.2558C11.0128 13.6298 10.588 15.2909 10.4972 17.1659C10.4064 18.7831 10.421 20.3856 10.421 21.9999C10.421 23.6142 10.4064 25.2196 10.4972 26.8339C10.588 28.7089 11.0158 30.3729 12.3869 31.744C13.7609 33.1181 15.422 33.5429 17.297 33.6337C18.9142 33.7245 20.5167 33.7099 22.131 33.7099C23.7482 33.7099 25.3507 33.7245 26.965 33.6337C28.84 33.5429 30.504 33.1151 31.8751 31.744C33.2492 30.37 33.674 28.7089 33.7648 26.8339C33.8585 25.2196 33.841 23.6171 33.841 21.9999ZM22.1281 28.0087C18.8029 28.0087 16.1193 25.3251 16.1193 21.9999C16.1193 18.6747 18.8029 15.9911 22.1281 15.9911C25.4533 15.9911 28.1369 18.6747 28.1369 21.9999C28.1369 25.3251 25.4533 28.0087 22.1281 28.0087ZM28.383 17.1483C27.6066 17.1483 26.9796 16.5214 26.9796 15.745C26.9796 14.9686 27.6066 14.3417 28.383 14.3417C29.1593 14.3417 29.7863 14.9686 29.7863 15.745C29.7865 15.9294 29.7504 16.1119 29.6799 16.2823C29.6095 16.4527 29.5061 16.6075 29.3758 16.7378C29.2454 16.8682 29.0906 16.9715 28.9203 17.042C28.7499 17.1124 28.5673 17.1486 28.383 17.1483Z" fill="#538ACB"/>
</svg>
