<svg width="1440" height="329" viewBox="0 0 1440 329" fill="none" xmlns="http://www.w3.org/2000/svg">
<path d="M1399.67 315.5C1414.11 322.49 1440 323 1440 323V162L1438.86 0H0L-4 329C-4 329 5.17664 324.544 10.8094 321.243C17.663 317.226 22.2752 315.73 27.7345 309.959C33.4158 303.954 36.175 299.609 38.3127 291.624C40.4492 283.643 38.3127 270.467 38.3127 270.467C38.3127 270.467 52.0986 284.08 62.9951 289.508C72.2743 294.131 78.1227 295.78 88.3827 297.265C100.932 299.082 108.618 299.297 120.822 295.855C133.283 292.341 140.499 288.707 149.736 279.635C158.464 271.064 160.746 263.905 165.956 252.837C171.464 241.135 176.674 221.5 176.674 221.5L230.835 204.883C230.835 204.883 305.872 180.746 355.658 178.085C384.555 176.54 429.705 180.906 429.705 180.906L424.064 183.726L292.894 217.577L238.593 235.912L291.484 223.923C291.484 223.923 371.944 202.878 424.064 206.293C447.423 207.824 460.258 211.34 483.301 215.461C521.322 222.26 541.688 231.092 579.915 236.617C619.804 242.383 642.575 244.073 682.876 243.669C714.073 243.357 731.659 242.288 762.565 238.028C794.616 233.61 812.678 230.41 843.664 221.103C856.76 217.169 876.809 209.819 876.809 209.819C876.809 209.819 889.398 216.217 897.966 218.987C909.427 222.693 916.298 223.494 928.29 224.629C940.902 225.821 948.331 227.229 960.73 224.629C972.445 222.172 979.383 219.85 988.938 212.64C996.095 207.239 1004.45 195.715 1004.45 195.715L1131.39 226.039L1007.98 181.611L1067.22 174.559L1328.17 256.5C1328.17 256.5 1334.99 264.321 1339.17 269C1348.44 279.351 1356.03 288.71 1367.17 297C1377.83 304.921 1387.69 309.696 1399.63 315.479L1399.67 315.5Z" fill="#ECF5FF"/>
<path d="M1388.79 83.5862C1410.64 85.9025 1437.45 111.795 1437.45 111.795H1439.57V37.0422L1096.13 67.3663C1096.13 67.3663 1158.85 71.0129 1199.09 71.5976C1221.12 71.9177 1233.68 74.6106 1255.51 71.5976C1264.12 70.4084 1275.25 70.1872 1275.25 70.1872C1275.25 70.1872 1283.18 76.1007 1287.95 80.7654C1294.61 87.2858 1299.05 90.694 1307.69 94.1644C1319.5 98.8999 1327.43 97.6495 1340.13 96.9852C1359.82 95.9556 1369.19 81.5077 1388.79 83.5862Z" fill="#3E9ADD" fill-opacity="0.1"/>
<path d="M67.2264 115.321L278.085 10.9495L-4 75.1238V118.142L41.1335 121.668L67.2264 115.321Z" fill="#3E9ADD" fill-opacity="0.1"/>
</svg>
