<svg width="46" height="45" viewBox="0 0 46 45" fill="none" xmlns="http://www.w3.org/2000/svg">
<circle cx="22.6279" cy="22.5" r="22.5" fill="#ECF5FF"/>
<path fill-rule="evenodd" clip-rule="evenodd" d="M22.0359 11.4387C23.1693 11.4387 24.3319 11.4686 25.4587 11.5176L26.7897 11.5828L28.0636 11.6603L29.2567 11.7433L30.3464 11.8303C31.529 11.9231 32.6417 12.4407 33.4889 13.292C34.3361 14.1432 34.8635 15.2737 34.9783 16.4844L35.0313 17.0622L35.1307 18.2995C35.2235 19.5817 35.2925 20.9794 35.2925 22.3159C35.2925 23.6524 35.2235 25.0502 35.1307 26.3323L35.0313 27.5696C35.0141 27.7681 34.9968 27.9598 34.9783 28.1474C34.8635 29.3584 34.3359 30.489 33.4884 31.3403C32.641 32.1916 31.5279 32.709 30.3451 32.8015L29.2581 32.8872L28.065 32.9715L26.7897 33.049L25.4587 33.1142C24.3184 33.1651 23.1772 33.1914 22.0359 33.1931C20.8945 33.1914 19.7533 33.1651 18.613 33.1142L17.2821 33.049L16.0081 32.9715L14.815 32.8872L13.7253 32.8015C12.5428 32.7087 11.43 32.1911 10.5828 31.3399C9.73562 30.4886 9.20825 29.3582 9.09348 28.1474L9.04045 27.5696L8.94103 26.3323C8.83966 24.996 8.78572 23.6563 8.7793 22.3159C8.7793 20.9794 8.84823 19.5817 8.94103 18.2995L9.04045 17.0622C9.05769 16.8637 9.07492 16.672 9.09348 16.4844C9.2082 15.2739 9.73538 14.1436 10.5823 13.2924C11.4292 12.4412 12.5417 11.9234 13.724 11.8303L14.8124 11.7433L16.0055 11.6603L17.2807 11.5828L18.6117 11.5176C19.7524 11.4668 20.8941 11.4405 22.0359 11.4387ZM19.3846 19.0188V25.6131C19.3846 26.2412 20.0474 26.6328 20.5777 26.3201L26.1454 23.0229C26.2666 22.9514 26.3672 22.8484 26.4372 22.7243C26.5072 22.6001 26.544 22.4593 26.544 22.3159C26.544 22.1725 26.5072 22.0317 26.4372 21.9076C26.3672 21.7834 26.2666 21.6804 26.1454 21.6089L20.5777 18.3131C20.4567 18.2415 20.3195 18.2038 20.1798 18.2038C20.0402 18.2038 19.903 18.2416 19.782 18.3132C19.6611 18.3849 19.5607 18.488 19.4909 18.612C19.4212 18.7361 19.3845 18.8769 19.3846 19.0201V19.0188Z" fill="#538ACB"/>
</svg>
