<svg width="492" height="97" viewBox="0 0 492 97" fill="none" xmlns="http://www.w3.org/2000/svg">
<rect x="19.5652" y="7.00018" width="450" height="90" rx="45" fill="url(#paint0_linear_6_1047)"/>
<rect x="20.0652" y="7.50018" width="449" height="89" rx="44.5" stroke="#3E9ADD" stroke-opacity="0.2"/>
<path d="M79.7581 63.0002L71.2621 51.8402V63.0002H65.1061V37.7282H71.2621V48.8162L79.6861 37.7282H86.9221L77.1301 50.1122L87.2821 63.0002H79.7581ZM90.0637 52.9202C90.0637 50.8562 90.4477 49.0442 91.2157 47.4842C92.0077 45.9242 93.0757 44.7242 94.4197 43.8842C95.7637 43.0442 97.2637 42.6242 98.9197 42.6242C100.336 42.6242 101.572 42.9122 102.628 43.4882C103.708 44.0642 104.536 44.8202 105.112 45.7562V42.9122H111.268V63.0002H105.112V60.1562C104.512 61.0922 103.672 61.8482 102.592 62.4242C101.536 63.0002 100.3 63.2882 98.8837 63.2882C97.2517 63.2882 95.7637 62.8682 94.4197 62.0282C93.0757 61.1642 92.0077 59.9522 91.2157 58.3922C90.4477 56.8082 90.0637 54.9842 90.0637 52.9202ZM105.112 52.9562C105.112 51.4202 104.68 50.2082 103.816 49.3202C102.976 48.4322 101.944 47.9882 100.72 47.9882C99.4957 47.9882 98.4517 48.4322 97.5877 49.3202C96.7477 50.1842 96.3277 51.3842 96.3277 52.9202C96.3277 54.4562 96.7477 55.6802 97.5877 56.5922C98.4517 57.4802 99.4957 57.9242 100.72 57.9242C101.944 57.9242 102.976 57.4802 103.816 56.5922C104.68 55.7042 105.112 54.4922 105.112 52.9562ZM122.957 36.3602V63.0002H116.801V36.3602H122.957ZM147.434 52.6322C147.434 53.2082 147.398 53.8082 147.326 54.4322H133.394C133.49 55.6802 133.886 56.6402 134.582 57.3122C135.302 57.9602 136.178 58.2842 137.21 58.2842C138.746 58.2842 139.814 57.6362 140.414 56.3402H146.966C146.63 57.6602 146.018 58.8482 145.13 59.9042C144.266 60.9602 143.174 61.7882 141.854 62.3882C140.534 62.9882 139.058 63.2882 137.426 63.2882C135.458 63.2882 133.706 62.8682 132.17 62.0282C130.634 61.1882 129.434 59.9882 128.57 58.4282C127.706 56.8682 127.274 55.0442 127.274 52.9562C127.274 50.8682 127.694 49.0442 128.534 47.4842C129.398 45.9242 130.598 44.7242 132.134 43.8842C133.67 43.0442 135.434 42.6242 137.426 42.6242C139.37 42.6242 141.098 43.0322 142.61 43.8482C144.122 44.6642 145.298 45.8282 146.138 47.3402C147.002 48.8522 147.434 50.6162 147.434 52.6322ZM141.134 51.0122C141.134 49.9562 140.774 49.1162 140.054 48.4922C139.334 47.8682 138.434 47.5562 137.354 47.5562C136.322 47.5562 135.446 47.8562 134.726 48.4562C134.03 49.0562 133.598 49.9082 133.43 51.0122H141.134ZM164.002 42.6962C166.354 42.6962 168.226 43.4642 169.618 45.0002C171.034 46.5122 171.742 48.6002 171.742 51.2642V63.0002H165.622V52.0922C165.622 50.7482 165.274 49.7042 164.578 48.9602C163.882 48.2162 162.946 47.8442 161.77 47.8442C160.594 47.8442 159.658 48.2162 158.962 48.9602C158.266 49.7042 157.918 50.7482 157.918 52.0922V63.0002H151.762V42.9122H157.918V45.5762C158.542 44.6882 159.382 43.9922 160.438 43.4882C161.494 42.9602 162.682 42.6962 164.002 42.6962ZM175.876 52.9202C175.876 50.8562 176.26 49.0442 177.028 47.4842C177.82 45.9242 178.888 44.7242 180.232 43.8842C181.576 43.0442 183.076 42.6242 184.732 42.6242C186.052 42.6242 187.252 42.9002 188.332 43.4522C189.436 44.0042 190.3 44.7482 190.924 45.6842V36.3602H197.08V63.0002H190.924V60.1202C190.348 61.0802 189.52 61.8482 188.44 62.4242C187.384 63.0002 186.148 63.2882 184.732 63.2882C183.076 63.2882 181.576 62.8682 180.232 62.0282C178.888 61.1642 177.82 59.9522 177.028 58.3922C176.26 56.8082 175.876 54.9842 175.876 52.9202ZM190.924 52.9562C190.924 51.4202 190.492 50.2082 189.628 49.3202C188.788 48.4322 187.756 47.9882 186.532 47.9882C185.308 47.9882 184.264 48.4322 183.4 49.3202C182.56 50.1842 182.14 51.3842 182.14 52.9202C182.14 54.4562 182.56 55.6802 183.4 56.5922C184.264 57.4802 185.308 57.9242 186.532 57.9242C187.756 57.9242 188.788 57.4802 189.628 56.5922C190.492 55.7042 190.924 54.4922 190.924 52.9562ZM221.549 52.6322C221.549 53.2082 221.513 53.8082 221.441 54.4322H207.509C207.605 55.6802 208.001 56.6402 208.697 57.3122C209.417 57.9602 210.293 58.2842 211.325 58.2842C212.861 58.2842 213.929 57.6362 214.529 56.3402H221.081C220.745 57.6602 220.133 58.8482 219.245 59.9042C218.381 60.9602 217.289 61.7882 215.969 62.3882C214.649 62.9882 213.173 63.2882 211.541 63.2882C209.573 63.2882 207.821 62.8682 206.285 62.0282C204.749 61.1882 203.549 59.9882 202.685 58.4282C201.821 56.8682 201.389 55.0442 201.389 52.9562C201.389 50.8682 201.809 49.0442 202.649 47.4842C203.513 45.9242 204.713 44.7242 206.249 43.8842C207.785 43.0442 209.549 42.6242 211.541 42.6242C213.485 42.6242 215.213 43.0322 216.725 43.8482C218.237 44.6642 219.413 45.8282 220.253 47.3402C221.117 48.8522 221.549 50.6162 221.549 52.6322ZM215.249 51.0122C215.249 49.9562 214.889 49.1162 214.169 48.4922C213.449 47.8682 212.549 47.5562 211.469 47.5562C210.437 47.5562 209.561 47.8562 208.841 48.4562C208.145 49.0562 207.713 49.9082 207.545 51.0122H215.249ZM232.033 46.2602C232.753 45.1562 233.653 44.2922 234.733 43.6682C235.813 43.0202 237.013 42.6962 238.333 42.6962V49.2122H236.641C235.105 49.2122 233.953 49.5482 233.185 50.2202C232.417 50.8682 232.033 52.0202 232.033 53.6762V63.0002H225.877V42.9122H232.033V46.2602ZM265.716 63.0002L257.22 51.8402V63.0002H251.064V37.7282H257.22V48.8162L265.644 37.7282H272.88L263.088 50.1122L273.24 63.0002H265.716ZM296.182 52.6322C296.182 53.2082 296.146 53.8082 296.074 54.4322H282.142C282.238 55.6802 282.634 56.6402 283.33 57.3122C284.05 57.9602 284.926 58.2842 285.958 58.2842C287.494 58.2842 288.562 57.6362 289.162 56.3402H295.714C295.378 57.6602 294.766 58.8482 293.878 59.9042C293.014 60.9602 291.922 61.7882 290.602 62.3882C289.282 62.9882 287.806 63.2882 286.174 63.2882C284.206 63.2882 282.454 62.8682 280.918 62.0282C279.382 61.1882 278.182 59.9882 277.318 58.4282C276.454 56.8682 276.022 55.0442 276.022 52.9562C276.022 50.8682 276.442 49.0442 277.282 47.4842C278.146 45.9242 279.346 44.7242 280.882 43.8842C282.418 43.0442 284.182 42.6242 286.174 42.6242C288.118 42.6242 289.846 43.0322 291.358 43.8482C292.87 44.6642 294.046 45.8282 294.886 47.3402C295.75 48.8522 296.182 50.6162 296.182 52.6322ZM289.882 51.0122C289.882 49.9562 289.522 49.1162 288.802 48.4922C288.082 47.8682 287.182 47.5562 286.102 47.5562C285.07 47.5562 284.194 47.8562 283.474 48.4562C282.778 49.0562 282.346 49.9082 282.178 51.0122H289.882ZM308.142 42.6242C309.558 42.6242 310.794 42.9122 311.85 43.4882C312.93 44.0642 313.758 44.8202 314.334 45.7562V42.9122H320.49V62.9642C320.49 64.8122 320.118 66.4802 319.374 67.9682C318.654 69.4802 317.538 70.6802 316.026 71.5682C314.538 72.4562 312.678 72.9002 310.446 72.9002C307.47 72.9002 305.058 72.1922 303.21 70.7762C301.362 69.3842 300.306 67.4882 300.042 65.0882H306.126C306.318 65.8562 306.774 66.4562 307.494 66.8882C308.214 67.3442 309.102 67.5722 310.158 67.5722C311.43 67.5722 312.438 67.2002 313.182 66.4562C313.95 65.7362 314.334 64.5722 314.334 62.9642V60.1202C313.734 61.0562 312.906 61.8242 311.85 62.4242C310.794 63.0002 309.558 63.2882 308.142 63.2882C306.486 63.2882 304.986 62.8682 303.642 62.0282C302.298 61.1642 301.23 59.9522 300.438 58.3922C299.67 56.8082 299.286 54.9842 299.286 52.9202C299.286 50.8562 299.67 49.0442 300.438 47.4842C301.23 45.9242 302.298 44.7242 303.642 43.8842C304.986 43.0442 306.486 42.6242 308.142 42.6242ZM314.334 52.9562C314.334 51.4202 313.902 50.2082 313.038 49.3202C312.198 48.4322 311.166 47.9882 309.942 47.9882C308.718 47.9882 307.674 48.4322 306.81 49.3202C305.97 50.1842 305.55 51.3842 305.55 52.9202C305.55 54.4562 305.97 55.6802 306.81 56.5922C307.674 57.4802 308.718 57.9242 309.942 57.9242C311.166 57.9242 312.198 57.4802 313.038 56.5922C313.902 55.7042 314.334 54.4922 314.334 52.9562ZM329.119 40.8242C328.039 40.8242 327.151 40.5122 326.455 39.8882C325.783 39.2402 325.447 38.4482 325.447 37.5122C325.447 36.5522 325.783 35.7602 326.455 35.1362C327.151 34.4882 328.039 34.1642 329.119 34.1642C330.175 34.1642 331.039 34.4882 331.711 35.1362C332.407 35.7602 332.755 36.5522 332.755 37.5122C332.755 38.4482 332.407 39.2402 331.711 39.8882C331.039 40.5122 330.175 40.8242 329.119 40.8242ZM332.179 42.9122V63.0002H326.023V42.9122H332.179ZM336.496 52.9202C336.496 50.8562 336.88 49.0442 337.648 47.4842C338.44 45.9242 339.508 44.7242 340.852 43.8842C342.196 43.0442 343.696 42.6242 345.352 42.6242C346.768 42.6242 348.004 42.9122 349.06 43.4882C350.14 44.0642 350.968 44.8202 351.544 45.7562V42.9122H357.7V63.0002H351.544V60.1562C350.944 61.0922 350.104 61.8482 349.024 62.4242C347.968 63.0002 346.732 63.2882 345.316 63.2882C343.684 63.2882 342.196 62.8682 340.852 62.0282C339.508 61.1642 338.44 59.9522 337.648 58.3922C336.88 56.8082 336.496 54.9842 336.496 52.9202ZM351.544 52.9562C351.544 51.4202 351.112 50.2082 350.248 49.3202C349.408 48.4322 348.376 47.9882 347.152 47.9882C345.928 47.9882 344.884 48.4322 344.02 49.3202C343.18 50.1842 342.76 51.3842 342.76 52.9202C342.76 54.4562 343.18 55.6802 344.02 56.5922C344.884 57.4802 345.928 57.9242 347.152 57.9242C348.376 57.9242 349.408 57.4802 350.248 56.5922C351.112 55.7042 351.544 54.4922 351.544 52.9562ZM374.43 57.7802V63.0002H371.298C369.066 63.0002 367.326 62.4602 366.078 61.3802C364.83 60.2762 364.206 58.4882 364.206 56.0162V48.0242H361.758V42.9122H364.206V38.0162H370.362V42.9122H374.394V48.0242H370.362V56.0882C370.362 56.6882 370.506 57.1202 370.794 57.3842C371.082 57.6482 371.562 57.7802 372.234 57.7802H374.43ZM377.715 52.9202C377.715 50.8562 378.099 49.0442 378.867 47.4842C379.659 45.9242 380.727 44.7242 382.071 43.8842C383.415 43.0442 384.915 42.6242 386.571 42.6242C387.987 42.6242 389.223 42.9122 390.279 43.4882C391.359 44.0642 392.187 44.8202 392.763 45.7562V42.9122H398.919V63.0002H392.763V60.1562C392.163 61.0922 391.323 61.8482 390.243 62.4242C389.187 63.0002 387.951 63.2882 386.535 63.2882C384.903 63.2882 383.415 62.8682 382.071 62.0282C380.727 61.1642 379.659 59.9522 378.867 58.3922C378.099 56.8082 377.715 54.9842 377.715 52.9202ZM392.763 52.9562C392.763 51.4202 392.331 50.2082 391.467 49.3202C390.627 48.4322 389.595 47.9882 388.371 47.9882C387.147 47.9882 386.103 48.4322 385.239 49.3202C384.399 50.1842 383.979 51.3842 383.979 52.9202C383.979 54.4562 384.399 55.6802 385.239 56.5922C386.103 57.4802 387.147 57.9242 388.371 57.9242C389.595 57.9242 390.627 57.4802 391.467 56.5922C392.331 55.7042 392.763 54.4922 392.763 52.9562ZM416.693 42.6962C419.045 42.6962 420.917 43.4642 422.309 45.0002C423.725 46.5122 424.433 48.6002 424.433 51.2642V63.0002H418.313V52.0922C418.313 50.7482 417.965 49.7042 417.269 48.9602C416.573 48.2162 415.637 47.8442 414.461 47.8442C413.285 47.8442 412.349 48.2162 411.653 48.9602C410.957 49.7042 410.609 50.7482 410.609 52.0922V63.0002H404.453V42.9122H410.609V45.5762C411.233 44.6882 412.073 43.9922 413.129 43.4882C414.185 42.9602 415.373 42.6962 416.693 42.6962Z" fill="#348AC9"/>
<rect x="446.814" y="3.43506" width="45" height="45" rx="22.5" transform="rotate(10 446.814 3.43506)" fill="url(#paint1_linear_6_1047)"/>
<rect x="447.22" y="4.01429" width="44" height="44" rx="22" transform="rotate(10 447.22 4.01429)" stroke="#3E9ADD" stroke-opacity="0.2"/>
<path d="M451.543 36.885C451.235 39.0735 452.673 40.9822 454.862 41.2898L472.885 43.8228C475.073 44.1303 476.982 42.692 477.29 40.5035L478.737 30.2047L452.99 26.5862L451.543 36.885ZM476.141 20.6505L473.567 20.2886L473.748 19.0013C473.856 18.2289 473.414 17.6416 472.641 17.533C471.869 17.4245 471.282 17.867 471.173 18.6394L470.992 19.9268L463.268 18.8412L463.449 17.5539C463.557 16.7815 463.115 16.1942 462.342 16.0856C461.57 15.9771 460.983 16.4196 460.874 17.192L460.693 18.4794L458.119 18.1175C455.93 17.81 454.021 19.2483 453.714 21.4368L453.352 24.0115L479.099 27.63L479.461 25.0553C479.768 22.8668 478.33 20.9581 476.141 20.6505Z" fill="#348AC9"/>
<rect width="45" height="45" rx="22.5" transform="matrix(-0.984808 0.173648 0.173648 0.984808 44.3164 0)" fill="url(#paint2_linear_6_1047)"/>
<rect x="-0.40558" y="0.579228" width="44" height="44" rx="22" transform="matrix(-0.984808 0.173648 0.173648 0.984808 43.4108 0.079228)" stroke="#3E9ADD" stroke-opacity="0.2"/>
<path d="M14.3929 36.8208C14.7004 39.0093 16.6092 40.4476 18.7977 40.14L36.8206 37.6071C39.0091 37.2995 40.4474 35.3908 40.1398 33.2023L38.6924 22.9035L12.9455 26.522L14.3929 36.8208ZM33.5639 14.4348L30.9892 14.7967L30.8083 13.5093C30.6997 12.7369 30.1124 12.2943 29.34 12.4029C28.5676 12.5115 28.125 13.0988 28.2336 13.8712L28.4145 15.1585L20.6904 16.2441L20.5095 14.9567C20.4009 14.1843 19.8136 13.7417 19.0412 13.8503C18.2688 13.9589 17.8263 14.5462 17.9348 15.3186L18.1157 16.6059L15.541 16.9678C13.3525 17.2753 11.9142 19.1841 12.2218 21.3726L12.5836 23.9473L38.3306 20.3288L37.9687 17.7541C37.6612 15.5656 35.7524 14.1273 33.5639 14.4348Z" fill="#348AC9"/>
<defs>
<linearGradient id="paint0_linear_6_1047" x1="244.565" y1="97.0002" x2="244.565" y2="7.00018" gradientUnits="userSpaceOnUse">
<stop stop-color="#F2F8FF"/>
<stop offset="0.541" stop-color="#E2EDF9"/>
<stop offset="1" stop-color="#CBE0F8"/>
</linearGradient>
<linearGradient id="paint1_linear_6_1047" x1="469.314" y1="48.4351" x2="469.314" y2="3.43506" gradientUnits="userSpaceOnUse">
<stop stop-color="#F2F8FF"/>
<stop offset="0.541" stop-color="#E2EDF9"/>
<stop offset="1" stop-color="#CBE0F8"/>
</linearGradient>
<linearGradient id="paint2_linear_6_1047" x1="22.5" y1="45" x2="22.5" y2="0" gradientUnits="userSpaceOnUse">
<stop stop-color="#F2F8FF"/>
<stop offset="0.541" stop-color="#E2EDF9"/>
<stop offset="1" stop-color="#CBE0F8"/>
</linearGradient>
</defs>
</svg>
