<svg width="535" height="99" viewBox="0 0 535 99" fill="none" xmlns="http://www.w3.org/2000/svg">
<rect x="16" y="9.00024" width="510" height="90" rx="45" fill="url(#paint0_linear_301_79)"/>
<rect x="16.5" y="9.50024" width="509" height="89" rx="44.5" stroke="#3E9ADD" stroke-opacity="0.2"/>
<path d="M105.603 63.0402H95.1235L93.4435 68.0002H86.2835L96.4435 39.9202H104.363L114.523 68.0002H107.283L105.603 63.0402ZM103.843 57.7602L100.363 47.4802L96.9235 57.7602H103.843ZM125.656 48.8402C126.322 47.8002 127.242 46.9602 128.416 46.3202C129.589 45.6802 130.962 45.3602 132.536 45.3602C134.376 45.3602 136.042 45.8269 137.536 46.7602C139.029 47.6936 140.202 49.0269 141.056 50.7602C141.936 52.4936 142.376 54.5069 142.376 56.8002C142.376 59.0936 141.936 61.1202 141.056 62.8802C140.202 64.6136 139.029 65.9602 137.536 66.9202C136.042 67.8536 134.376 68.3202 132.536 68.3202C130.989 68.3202 129.616 68.0002 128.416 67.3602C127.242 66.7202 126.322 65.8936 125.656 64.8802V78.6402H118.816V45.6802H125.656V48.8402ZM135.416 56.8002C135.416 55.0936 134.936 53.7602 133.976 52.8002C133.042 51.8136 131.882 51.3202 130.496 51.3202C129.136 51.3202 127.976 51.8136 127.016 52.8002C126.082 53.7869 125.616 55.1336 125.616 56.8402C125.616 58.5469 126.082 59.8936 127.016 60.8802C127.976 61.8669 129.136 62.3602 130.496 62.3602C131.856 62.3602 133.016 61.8669 133.976 60.8802C134.936 59.8669 135.416 58.5069 135.416 56.8002ZM145.804 56.8002C145.804 54.5069 146.231 52.4936 147.084 50.7602C147.964 49.0269 149.151 47.6936 150.644 46.7602C152.137 45.8269 153.804 45.3602 155.644 45.3602C157.217 45.3602 158.591 45.6802 159.764 46.3202C160.964 46.9602 161.884 47.8002 162.524 48.8402V45.6802H169.364V68.0002H162.524V64.8402C161.857 65.8802 160.924 66.7202 159.724 67.3602C158.551 68.0002 157.177 68.3202 155.604 68.3202C153.791 68.3202 152.137 67.8536 150.644 66.9202C149.151 65.9602 147.964 64.6136 147.084 62.8802C146.231 61.1202 145.804 59.0936 145.804 56.8002ZM162.524 56.8402C162.524 55.1336 162.044 53.7869 161.084 52.8002C160.151 51.8136 159.004 51.3202 157.644 51.3202C156.284 51.3202 155.124 51.8136 154.164 52.8002C153.231 53.7602 152.764 55.0936 152.764 56.8002C152.764 58.5069 153.231 59.8669 154.164 60.8802C155.124 61.8669 156.284 62.3602 157.644 62.3602C159.004 62.3602 160.151 61.8669 161.084 60.8802C162.044 59.8936 162.524 58.5469 162.524 56.8402ZM201.469 68.0002L192.029 55.6002V68.0002H185.189V39.9202H192.029V52.2402L201.389 39.9202H209.429L198.549 53.6802L209.829 68.0002H201.469ZM212.92 56.8002C212.92 54.5069 213.346 52.4936 214.2 50.7602C215.08 49.0269 216.266 47.6936 217.76 46.7602C219.253 45.8269 220.92 45.3602 222.76 45.3602C224.333 45.3602 225.706 45.6802 226.88 46.3202C228.08 46.9602 229 47.8002 229.64 48.8402V45.6802H236.48V68.0002H229.64V64.8402C228.973 65.8802 228.04 66.7202 226.84 67.3602C225.666 68.0002 224.293 68.3202 222.72 68.3202C220.906 68.3202 219.253 67.8536 217.76 66.9202C216.266 65.9602 215.08 64.6136 214.2 62.8802C213.346 61.1202 212.92 59.0936 212.92 56.8002ZM229.64 56.8402C229.64 55.1336 229.16 53.7869 228.2 52.8002C227.266 51.8136 226.12 51.3202 224.76 51.3202C223.4 51.3202 222.24 51.8136 221.28 52.8002C220.346 53.7602 219.88 55.0936 219.88 56.8002C219.88 58.5069 220.346 59.8669 221.28 60.8802C222.24 61.8669 223.4 62.3602 224.76 62.3602C226.12 62.3602 227.266 61.8669 228.2 60.8802C229.16 59.8936 229.64 58.5469 229.64 56.8402ZM255.068 62.2002V68.0002H251.588C249.108 68.0002 247.175 67.4002 245.788 66.2002C244.402 64.9736 243.708 62.9869 243.708 60.2402V51.3602H240.988V45.6802H243.708V40.2402H250.548V45.6802H255.028V51.3602H250.548V60.3202C250.548 60.9869 250.708 61.4669 251.028 61.7602C251.348 62.0536 251.882 62.2002 252.628 62.2002H255.068ZM258.718 56.8002C258.718 54.5069 259.145 52.4936 259.998 50.7602C260.878 49.0269 262.065 47.6936 263.558 46.7602C265.052 45.8269 266.718 45.3602 268.558 45.3602C270.132 45.3602 271.505 45.6802 272.678 46.3202C273.878 46.9602 274.798 47.8002 275.438 48.8402V45.6802H282.278V68.0002H275.438V64.8402C274.772 65.8802 273.838 66.7202 272.638 67.3602C271.465 68.0002 270.092 68.3202 268.518 68.3202C266.705 68.3202 265.052 67.8536 263.558 66.9202C262.065 65.9602 260.878 64.6136 259.998 62.8802C259.145 61.1202 258.718 59.0936 258.718 56.8002ZM275.438 56.8402C275.438 55.1336 274.958 53.7869 273.998 52.8002C273.065 51.8136 271.918 51.3202 270.558 51.3202C269.198 51.3202 268.038 51.8136 267.078 52.8002C266.145 53.7602 265.678 55.0936 265.678 56.8002C265.678 58.5069 266.145 59.8669 267.078 60.8802C268.038 61.8669 269.198 62.3602 270.558 62.3602C271.918 62.3602 273.065 61.8669 273.998 60.8802C274.958 59.8936 275.438 58.5469 275.438 56.8402ZM329.903 39.9202V68.0002H323.063V51.1602L316.783 68.0002H311.263L304.943 51.1202V68.0002H298.103V39.9202H306.183L314.063 59.3602L321.863 39.9202H329.903ZM357.062 56.4802C357.062 57.1202 357.022 57.7869 356.942 58.4802H341.462C341.569 59.8669 342.009 60.9336 342.782 61.6802C343.582 62.4002 344.555 62.7602 345.702 62.7602C347.409 62.7602 348.595 62.0402 349.262 60.6002H356.542C356.169 62.0669 355.489 63.3869 354.502 64.5602C353.542 65.7336 352.329 66.6536 350.862 67.3202C349.395 67.9869 347.755 68.3202 345.942 68.3202C343.755 68.3202 341.809 67.8536 340.102 66.9202C338.395 65.9869 337.062 64.6536 336.102 62.9202C335.142 61.1869 334.662 59.1602 334.662 56.8402C334.662 54.5202 335.129 52.4936 336.062 50.7602C337.022 49.0269 338.355 47.6936 340.062 46.7602C341.769 45.8269 343.729 45.3602 345.942 45.3602C348.102 45.3602 350.022 45.8136 351.702 46.7202C353.382 47.6269 354.689 48.9202 355.622 50.6002C356.582 52.2802 357.062 54.2402 357.062 56.4802ZM350.062 54.6802C350.062 53.5069 349.662 52.5736 348.862 51.8802C348.062 51.1869 347.062 50.8402 345.862 50.8402C344.715 50.8402 343.742 51.1736 342.942 51.8402C342.169 52.5069 341.689 53.4536 341.502 54.6802H350.062ZM368.71 49.4002C369.51 48.1736 370.51 47.2136 371.71 46.5202C372.91 45.8002 374.244 45.4402 375.71 45.4402V52.6802H373.83C372.124 52.6802 370.844 53.0536 369.99 53.8002C369.137 54.5202 368.71 55.8002 368.71 57.6402V68.0002H361.87V45.6802H368.71V49.4002ZM401.22 56.4802C401.22 57.1202 401.18 57.7869 401.1 58.4802H385.62C385.726 59.8669 386.166 60.9336 386.94 61.6802C387.74 62.4002 388.713 62.7602 389.86 62.7602C391.566 62.7602 392.753 62.0402 393.42 60.6002H400.7C400.326 62.0669 399.646 63.3869 398.66 64.5602C397.7 65.7336 396.486 66.6536 395.02 67.3202C393.553 67.9869 391.913 68.3202 390.1 68.3202C387.913 68.3202 385.966 67.8536 384.26 66.9202C382.553 65.9869 381.22 64.6536 380.26 62.9202C379.3 61.1869 378.82 59.1602 378.82 56.8402C378.82 54.5202 379.286 52.4936 380.22 50.7602C381.18 49.0269 382.513 47.6936 384.22 46.7602C385.926 45.8269 387.886 45.3602 390.1 45.3602C392.26 45.3602 394.18 45.8136 395.86 46.7202C397.54 47.6269 398.846 48.9202 399.78 50.6002C400.74 52.2802 401.22 54.2402 401.22 56.4802ZM394.22 54.6802C394.22 53.5069 393.82 52.5736 393.02 51.8802C392.22 51.1869 391.22 50.8402 390.02 50.8402C388.873 50.8402 387.9 51.1736 387.1 51.8402C386.326 52.5069 385.846 53.4536 385.66 54.6802H394.22ZM419.668 68.0002L412.868 58.6402V68.0002H406.028V38.4002H412.868V54.7602L419.628 45.6802H428.068L418.788 56.8802L428.148 68.0002H419.668ZM430.595 56.8002C430.595 54.5069 431.021 52.4936 431.875 50.7602C432.755 49.0269 433.941 47.6936 435.435 46.7602C436.928 45.8269 438.595 45.3602 440.435 45.3602C442.008 45.3602 443.381 45.6802 444.555 46.3202C445.755 46.9602 446.675 47.8002 447.315 48.8402V45.6802H454.155V68.0002H447.315V64.8402C446.648 65.8802 445.715 66.7202 444.515 67.3602C443.341 68.0002 441.968 68.3202 440.395 68.3202C438.581 68.3202 436.928 67.8536 435.435 66.9202C433.941 65.9602 432.755 64.6136 431.875 62.8802C431.021 61.1202 430.595 59.0936 430.595 56.8002ZM447.315 56.8402C447.315 55.1336 446.835 53.7869 445.875 52.8002C444.941 51.8136 443.795 51.3202 442.435 51.3202C441.075 51.3202 439.915 51.8136 438.955 52.8002C438.021 53.7602 437.555 55.0936 437.555 56.8002C437.555 58.5069 438.021 59.8669 438.955 60.8802C439.915 61.8669 441.075 62.3602 442.435 62.3602C443.795 62.3602 444.941 61.8669 445.875 60.8802C446.835 59.8936 447.315 58.5469 447.315 56.8402Z" fill="#3E9ADD"/>
<rect x="490.249" y="0.435059" width="45" height="45" rx="22.5" transform="rotate(10 490.249 0.435059)" fill="url(#paint1_linear_301_79)"/>
<rect x="490.654" y="1.01429" width="44" height="44" rx="22" transform="rotate(10 490.654 1.01429)" stroke="#3E9ADD" stroke-opacity="0.2"/>
<path d="M510.544 16.5152C512.511 16.862 513.992 17.6539 514.987 18.8908C516 20.1309 516.341 21.6885 516.011 23.5636C515.706 25.2916 514.898 26.5423 513.586 27.3156C512.296 28.0738 510.721 28.2984 508.862 27.9894L508.359 30.0332L504.223 29.3039L504.989 24.1507L506.644 24.4424C508.059 24.692 509.165 24.707 509.962 24.4874C510.778 24.271 511.266 23.7032 511.428 22.7841C511.542 22.1407 511.456 21.6043 511.172 21.1751C510.887 20.7458 510.433 20.4761 509.808 20.3659C509.146 20.2492 508.597 20.3515 508.161 20.6727C507.729 20.9755 507.456 21.4486 507.343 22.092L502.903 21.3092C503.064 20.1814 503.472 19.2108 504.127 18.3976C504.801 17.5876 505.679 17.0127 506.763 16.673C507.868 16.3182 509.128 16.2656 510.544 16.5152ZM505.082 36.8477C504.255 36.7018 503.617 36.3429 503.168 35.7709C502.741 35.1838 502.59 34.5318 502.717 33.8148C502.846 33.0795 503.212 32.5091 503.814 32.1035C504.435 31.7011 505.159 31.5729 505.986 31.7188C506.795 31.8614 507.413 32.2263 507.84 32.8134C508.286 33.4037 508.444 34.0665 508.314 34.8019C508.188 35.5188 507.814 36.0784 507.194 36.4808C506.595 36.868 505.891 36.9903 505.082 36.8477Z" fill="#3E9ADD"/>
<rect width="45" height="45" rx="22.5" transform="matrix(-0.984808 0.173648 0.173648 0.984808 44.7512 0)" fill="url(#paint2_linear_301_79)"/>
<rect x="-0.40558" y="0.579228" width="44" height="44" rx="22" transform="matrix(-0.984808 0.173648 0.173648 0.984808 43.8456 0.079228)" stroke="#3E9ADD" stroke-opacity="0.2"/>
<path d="M24.4564 16.0801C22.4894 16.4269 21.0084 17.2188 20.0134 18.4557C19.0001 19.6959 18.6587 21.2535 18.9893 23.1285C19.294 24.8566 20.1021 26.1072 21.4137 26.8806C22.7036 27.6388 24.2785 27.8633 26.1385 27.5543L26.641 29.5981L30.7772 28.8688L30.0107 23.7156L28.3562 24.0073C26.9407 24.2569 25.8345 24.2719 25.0376 24.0523C24.2223 23.8359 23.7336 23.2682 23.5716 22.349C23.4581 21.7056 23.5436 21.1693 23.8281 20.74C24.1125 20.3108 24.5673 20.041 25.1923 19.9308C25.8541 19.8141 26.4028 19.9164 26.8386 20.2376C27.2711 20.5404 27.544 21.0136 27.6575 21.657L32.097 20.8742C31.936 19.7463 31.528 18.7758 30.8728 17.9625C30.1992 17.1525 29.3207 16.5777 28.2373 16.238C27.1322 15.8831 25.8719 15.8305 24.4564 16.0801ZM29.9181 36.4126C30.7453 36.2667 31.3834 35.9078 31.8322 35.3359C32.2594 34.7488 32.4098 34.0967 32.2834 33.3798C32.1537 32.6445 31.7878 32.074 31.1855 31.6684C30.5649 31.2661 29.841 31.1379 29.0137 31.2837C28.2049 31.4263 27.5869 31.7912 27.1596 32.3783C26.7141 32.9686 26.5561 33.6315 26.6857 34.3668C26.8122 35.0837 27.1857 35.6434 27.8063 36.0457C28.4053 36.4329 29.1092 36.5552 29.9181 36.4126Z" fill="#3E9ADD"/>
<defs>
<linearGradient id="paint0_linear_301_79" x1="271" y1="99.0002" x2="271" y2="9.00024" gradientUnits="userSpaceOnUse">
<stop stop-color="#F2F8FF"/>
<stop offset="0.541" stop-color="#E2EDF9"/>
<stop offset="1" stop-color="#CBE0F8"/>
</linearGradient>
<linearGradient id="paint1_linear_301_79" x1="512.749" y1="45.4351" x2="512.749" y2="0.435059" gradientUnits="userSpaceOnUse">
<stop stop-color="#F2F8FF"/>
<stop offset="0.541" stop-color="#E2EDF9"/>
<stop offset="1" stop-color="#CBE0F8"/>
</linearGradient>
<linearGradient id="paint2_linear_301_79" x1="22.5" y1="45" x2="22.5" y2="0" gradientUnits="userSpaceOnUse">
<stop stop-color="#F2F8FF"/>
<stop offset="0.541" stop-color="#E2EDF9"/>
<stop offset="1" stop-color="#CBE0F8"/>
</linearGradient>
</defs>
</svg>
